<?xml version="1.0" encoding="UTF-8" standalone="no"?>
<!-- Created with Inkscape (http://www.inkscape.org/) -->

<svg
   width="32"
   height="32"
   viewBox="0 0 32 32"
   version="1.1"
   id="svg1"
   xml:space="preserve"
   inkscape:version="1.4.2 (f4327f4, 2025-05-13)"
   sodipodi:docname="Logo.svg"
   xmlns:inkscape="http://www.inkscape.org/namespaces/inkscape"
   xmlns:sodipodi="http://sodipodi.sourceforge.net/DTD/sodipodi-0.dtd"
   xmlns="http://www.w3.org/2000/svg"
   xmlns:svg="http://www.w3.org/2000/svg"><sodipodi:namedview
     id="namedview1"
     pagecolor="#505050"
     bordercolor="#eeeeee"
     borderopacity="1"
     inkscape:showpageshadow="0"
     inkscape:pageopacity="0"
     inkscape:pagecheckerboard="0"
     inkscape:deskcolor="#505050"
     inkscape:document-units="px"
     inkscape:zoom="18.87"
     inkscape:cx="15.951245"
     inkscape:cy="11.791203"
     inkscape:window-width="1920"
     inkscape:window-height="1057"
     inkscape:window-x="-8"
     inkscape:window-y="-8"
     inkscape:window-maximized="1"
     inkscape:current-layer="layer1" /><defs
     id="defs1" /><g
     inkscape:label="Layer 1"
     inkscape:groupmode="layer"
     id="layer1"><rect
       style="fill:#f9f9f9;fill-opacity:1;stroke-width:1.81321"
       id="rect1"
       width="31.743507"
       height="31.902491"
       x="0.21197726"
       y="0.10598765" /><path
       style="fill:#02576c;fill-opacity:1;stroke-width:1.83224"
       d="M -0.29082999,15.913059 V -0.24912868 H 15.979493 32.249817 V 15.913059 32.075246 H 15.979493 -0.29082999 Z M 18.82285,14.788734 c 0,-2.396221 -0.06025,-4.356764 -0.133918,-4.356764 -0.07366,0 -0.535702,0.74953 -1.026768,1.665621 l -0.89285,1.665625 v 2.503751 c 0,1.377067 0.0474,2.588077 0.105317,2.691142 0.05791,0.103067 0.519965,0.187388 1.026768,0.187388 h 0.921457 z m 2.52743,0 c 0,-2.396221 -0.06079,-4.356764 -0.135058,-4.356764 -0.07427,0 -0.500782,0.688104 -0.947785,1.529122 L 19.4547,13.490215 v 2.827641 2.827641 h 0.947786 0.947787 z m 2.527427,0.08083 V 10.59364 l -0.789823,1.384276 -0.789818,1.384273 v 2.89166 2.891651 h 0.789818 0.789823 z M 15.821528,13.242781 V 7.6211488 H 12.741224 9.6609213 v 5.6216302 5.62163 h 3.0803027 3.080304 z m -4.423,-0.140554 v -2.10811 h 0.991619 c 1.419361,0 1.693775,0.412431 1.693775,2.54567 v 1.670552 h -1.342698 -1.342696 z m 6.453624,-2.512907 c 0.542874,-1.021395 0.812733,-1.7680351 0.812733,-2.2486519 0,-0.7080267 -0.01893,-0.7195293 -1.184732,-0.7195293 h -1.184731 v 0.8520664 c 0,0.4980971 0.09844,0.9192771 0.236944,1.0138572 0.160855,0.1098475 0.236948,0.5582866 0.236948,1.3965876 0,0.679135 0.06079,1.234792 0.135057,1.234792 0.07427,0 0.500782,-0.688105 0.947786,-1.529122 z m 2.665955,-0.07468 c 0.500499,-0.964596 0.832173,-1.86083 0.832173,-2.2486545 0,-0.6109725 -0.05804,-0.6448296 -1.105751,-0.6448296 h -1.10575 v 0.9837798 c 0,0.5410827 0.0711,0.9837844 0.15796,0.9837844 0.08688,0 0.15796,0.5691909 0.15796,1.2648679 0,0.695675 0.05202,1.264866 0.115614,1.264866 0.06358,0 0.490092,-0.721719 0.947784,-1.60382 z m 3.3596,-1.96941 V 7.6211488 h -1.026766 -1.02677 v 0.9837849 c 0,0.6870887 0.07148,0.9837847 0.236946,0.9837847 0.177099,0 0.236949,0.3345625 0.236949,1.3245716 v 1.324571 l 0.789818,-1.384275 C 23.717755,9.7496485 23.877707,9.2821696 23.877707,8.54523 Z"
       id="path1" /></g></svg>
